REM DIRINDEX 1\2,1\4,1\3\5,1\3\6
REM DIRNAME folder01,folder02,folder03,folder04,folder05,folder06
TITLE ""
FILE "Track12.mp3" MP3
  TRACK 01 AUDIO
    TITLE "4:cjc035_0265"
    INDEX 01 00:00:00
  TRACK 02 AUDIO
    TITLE "4:cjc035_0266"
    INDEX 01 00:06:04
  TRACK 03 AUDIO
    TITLE "2:cjc035_0267"
    INDEX 01 00:08:68
  TRACK 04 AUDIO
    TITLE "2:cjc035_0268"
    INDEX 01 00:11:01
  TRACK 05 AUDIO
    TITLE "4:cjc035_0269"
    INDEX 01 00:13:71
  TRACK 06 AUDIO
    TITLE "2:cjc035_0270"
    INDEX 01 00:16:59
  TRACK 07 AUDIO
    TITLE "2:cjc035_0271"
    INDEX 01 00:19:13
  TRACK 08 AUDIO
    TITLE "2:cjc035_0272"
    INDEX 01 00:21:00
  TRACK 09 AUDIO
    TITLE "4:cjc035_0273"
    INDEX 01 00:23:63
  TRACK 10 AUDIO
    TITLE "2:cjc035_0274"
    INDEX 01 00:26:54
  TRACK 11 AUDIO
    TITLE "2:cjc035_0275"
    INDEX 01 00:28:00
  TRACK 12 AUDIO
    TITLE "4:cjc035_0276"
    INDEX 01 00:32:19
  TRACK 13 AUDIO
    TITLE "2:cjc035_0277"
    INDEX 01 00:35:04
  TRACK 14 AUDIO
    TITLE "2:cjc035_0278"
    INDEX 01 00:37:42
  TRACK 15 AUDIO
    TITLE "2:cjc035_0279"
    INDEX 01 00:39:54
  TRACK 16 AUDIO
    TITLE "4:cjc035_0280"
    INDEX 01 00:42:31
  TRACK 17 AUDIO
    TITLE "2:cjc035_0281"
    INDEX 01 00:45:59
  TRACK 18 AUDIO
    TITLE "2:cjc035_0282"
    INDEX 01 00:47:42
  TRACK 19 AUDIO
    TITLE "4:cjc035_0283"
    INDEX 01 00:50:19
  TRACK 20 AUDIO
    TITLE "2:cjc035_0284"
    INDEX 01 00:53:09
  TRACK 21 AUDIO
    TITLE "4:cjc035_0285"
    INDEX 01 00:56:20
  TRACK 22 AUDIO
    TITLE "2:cjc035_0286"
    INDEX 01 00:58:64
  TRACK 23 AUDIO
    TITLE "4:cjc035_0287"
    INDEX 01 01:02:30
  TRACK 24 AUDIO
    TITLE "2:cjc035_0288"
    INDEX 01 01:05:22
  TRACK 25 AUDIO
    TITLE "2:cjc035_0289"
    INDEX 01 01:07:70
  TRACK 26 AUDIO
    TITLE "4:cjc035_0290"
    INDEX 01 01:12:34
  TRACK 27 AUDIO
    TITLE "2:cjc035_0291"
    INDEX 01 01:15:11
  TRACK 28 AUDIO
    TITLE "2:cjc035_0292"
    INDEX 01 01:18:47
  TRACK 29 AUDIO
    TITLE "4:cjc035_0293"
    INDEX 01 01:21:72
  TRACK 30 AUDIO
    TITLE "2:cjc035_0294"
    INDEX 01 01:24:53
  TRACK 31 AUDIO
    TITLE "4:cjc035_0295"
    INDEX 01 01:28:39
  TRACK 32 AUDIO
    TITLE "2:cjc035_0296"
    INDEX 01 01:31:22
  TRACK 33 AUDIO
    TITLE "2:cjc035_0297"
    INDEX 01 01:34:08
  TRACK 34 AUDIO
    TITLE "4:cjc035_0298"
    INDEX 01 01:37:42
  TRACK 35 AUDIO
    TITLE "2:cjc035_0299"
    INDEX 01 01:40:23
  TRACK 36 AUDIO
    TITLE "4:cjc035_0300"
    INDEX 01 01:45:36
  TRACK 37 AUDIO
    TITLE "2:cjc035_0301"
    INDEX 01 01:48:26
  TRACK 38 AUDIO
    TITLE "2:cjc035_0302"
    INDEX 01 01:50:45
  TRACK 39 AUDIO
    TITLE "2:cjc035_0303"
    INDEX 01 01:52:46
  TRACK 40 AUDIO
    TITLE "2:cjc035_0304"
    INDEX 01 01:54:15
  TRACK 41 AUDIO
    TITLE "4:cjc035_0305"
    INDEX 01 01:57:58
  TRACK 42 AUDIO
    TITLE "2:cjc035_0306"
    INDEX 01 02:00:39
  TRACK 43 AUDIO
    TITLE "2:cjc035_0307"
    INDEX 01 02:03:43
  TRACK 44 AUDIO
    TITLE "4:cjc035_0308"
    INDEX 01 02:08:66
  TRACK 45 AUDIO
    TITLE "2:cjc035_0309"
    INDEX 01 02:11:49
  TRACK 46 AUDIO
    TITLE "2:cjc035_0310"
    INDEX 01 02:13:38
  TRACK 47 AUDIO
    TITLE "4:cjc035_0311"
    INDEX 01 02:15:54
  TRACK 48 AUDIO
    TITLE "2:cjc035_0312"
    INDEX 01 02:18:35
  TRACK 49 AUDIO
    TITLE "2:cjc035_0313"
    INDEX 01 02:20:24
  TRACK 50 AUDIO
    TITLE "4:cjc035_0314"
    INDEX 01 02:22:68
  TRACK 51 AUDIO
    TITLE "2:cjc035_0315"
    INDEX 01 02:25:33
  TRACK 52 AUDIO
    TITLE "2:cjc035_0316"
    INDEX 01 02:27:48
  TRACK 53 AUDIO
    TITLE "4:cjc035_0317"
    INDEX 01 02:30:07
  TRACK 54 AUDIO
    TITLE "2:cjc035_0318"
    INDEX 01 02:32:65
  TRACK 55 AUDIO
    TITLE "2:cjc035_0319"
    INDEX 01 02:35:43
  TRACK 56 AUDIO
    TITLE "4:cjc035_0320"
    INDEX 01 02:38:20
  TRACK 57 AUDIO
    TITLE "2:cjc035_0321"
    INDEX 01 02:40:74
  TRACK 58 AUDIO
    TITLE "2:cjc035_0322"
    INDEX 01 02:43:39
  TRACK 59 AUDIO
    TITLE "2:cjc035_0323"
    INDEX 01 02:45:48
  TRACK 60 AUDIO
    TITLE "4:cjc035_0324"
    INDEX 01 02:48:44
  TRACK 61 AUDIO
    TITLE "2:cjc035_0325"
    INDEX 01 02:51:25
  TRACK 62 AUDIO
    TITLE "2:cjc035_0326"
    INDEX 01 02:54:04
  TRACK 63 AUDIO
    TITLE "4:cjc035_0327"
    INDEX 01 02:56:48
  TRACK 64 AUDIO
    TITLE "2:cjc035_0328"
    INDEX 01 02:59:26
  TRACK 65 AUDIO
    TITLE "2:cjc035_0329"
    INDEX 01 03:01:74
  TRACK 66 AUDIO
    TITLE "4:cjc035_0330"
    INDEX 01 03:04:72
  TRACK 67 AUDIO
    TITLE "2:cjc035_0331"
    INDEX 01 03:07:51
  TRACK 68 AUDIO
    TITLE "2:cjc035_0332"
    INDEX 01 03:09:36
  TRACK 69 AUDIO
    TITLE "4:cjc035_0333"
    INDEX 01 03:12:15
  TRACK 70 AUDIO
    TITLE "2:cjc035_0334"
    INDEX 01 03:15:00
  TRACK 71 AUDIO
    TITLE "2:cjc035_0335"
    INDEX 01 03:17:54
  TRACK 72 AUDIO
    TITLE "4:cjc035_0336"
    INDEX 01 03:19:70
  TRACK 73 AUDIO
    TITLE "2:cjc035_0337"
    INDEX 01 03:22:55
  TRACK 74 AUDIO
    TITLE "4:cjc035_0338"
    INDEX 01 03:26:02
  TRACK 75 AUDIO
    TITLE "2:cjc035_0339"
    INDEX 01 03:28:67
  TRACK 76 AUDIO
    TITLE "2:cjc035_0340"
    INDEX 01 03:30:74
  TRACK 77 AUDIO
    TITLE "4:cjc035_0341"
    INDEX 01 03:33:60
  TRACK 78 AUDIO
    TITLE "2:cjc035_0342"
    INDEX 01 03:36:47
  TRACK 79 AUDIO
    TITLE "2:cjc035_0343"
    INDEX 01 03:38:36
  TRACK 80 AUDIO
    TITLE "4:cjc035_0344"
    INDEX 01 03:41:40
  TRACK 81 AUDIO
    TITLE "2:cjc035_0345"
    INDEX 01 03:44:19
  TRACK 82 AUDIO
    TITLE "4:cjc035_0346"
    INDEX 01 03:49:07
  TRACK 83 AUDIO
    TITLE "2:cjc035_0347"
    INDEX 01 03:52:01
  TRACK 84 AUDIO
    TITLE "2:cjc035_0348"
    INDEX 01 03:56:38
  TRACK 85 AUDIO
    TITLE "4:cjc035_0349"
    INDEX 01 03:59:07
  TRACK 86 AUDIO
    TITLE "2:cjc035_0350"
    INDEX 01 04:01:67
  TRACK 87 AUDIO
    TITLE "4:cjc035_0351"
    INDEX 01 04:06:36
  TRACK 88 AUDIO
    TITLE "2:cjc035_0352"
    INDEX 01 04:09:33
  TRACK 89 AUDIO
    TITLE "2:cjc035_0353"
    INDEX 01 04:11:36
  TRACK 90 AUDIO
    TITLE "2:cjc035_0354"
    INDEX 01 04:13:15
  TRACK 91 AUDIO
    TITLE "4:cjc035_0355"
    INDEX 01 04:16:05
  TRACK 92 AUDIO
    TITLE "2:cjc035_0356"
    INDEX 01 04:18:71
  TRACK 93 AUDIO
    TITLE "2:cjc035_0357"
    INDEX 01 04:21:01
  TRACK 94 AUDIO
    TITLE "0:"
    INDEX 01 04:23:23
